# xmcd
#
# Track frame offsets: 
#        150
#        12843
#        23699
#        36542
#        51148
#        68716
#        80978
#        93071
#        106496
#        119302
#        132614
#        146639
#        158189
#        172420
#        184963
#        200094
#        212975
#        228106
#
# Disc length: 3197 seconds
#
# Revision: 2
# Processed by: cddbd v1.5.2PL0 Copyright (c) Steve Scherf et al.
# Submitted via: ExactAudioCopyFreeDBPlugin 1.0
#
DISCID=0d0c7b12
DTITLE=Muddy Waters - Mannish Boy
DYEAR=2014
DGENRE=Blues
TTITLE0=(I´m Your) Hoochie Coochie Man
TTITLE1=Key To The Highway
TTITLE2=I Just Want To Make Love To You
TTITLE3=Baby, Please Don´t Go
TTITLE4=Mannish Boy
TTITLE5=I Want To Be Loved
TTITLE6=I Cant Be  Satisfied
TTITLE7=Rollin´ And Tumblin´
TTITLE8=I Got My Mojo Workin´
TTITLE9=Walking Blues
TTITLE10=Rollin´ Stone
TTITLE11=Gypsy Woman
TTITLE12=(I Feel Like) Going Home
TTITLE13=Can´t Loos What You Ain´t Never Had
TTITLE14=Honey Bee
TTITLE15=Forty Days And Forty Nights
TTITLE16=Standing ´Round Crying
TTITLE17=Goin´ Home
EXTD=
EXTT0=
EXTT1=
EXTT2=
EXTT3=
EXTT4=
EXTT5=
EXTT6=
EXTT7=
EXTT8=
EXTT9=
EXTT10=
EXTT11=
EXTT12=
EXTT13=
EXTT14=
EXTT15=
EXTT16=
EXTT17=
PLAYORDER=
